<?xml version="1.0" encoding="UTF-8"?>
<!DOCTYPE svg  PUBLIC '-//W3C//DTD SVG 20010904//EN'  'http://www.w3.org/TR/2001/REC-SVG-20010904/DTD/svg10.dtd'>
<svg width="638pt" height="304pt" version="1.0" viewBox="0 0 638 304" xmlns="http://www.w3.org/2000/svg">
<g transform="translate(0 304) scale(.1 -.1)" fill="#1C1C1C">
<path d="m3260 2720c-13-13-20-33-20-58v-38l-132-12c-109-10-144-10-195 1l-63 14v-113-112l66-12c63-12 125-11 268 6l56 7v-82-81h-55-55v-165-165h336 337l-5 78c-7 118-52 188-148 231-38 17-66 21-172 21h-128v234c0 200-2 237-16 250-21 22-50 20-74-4z"/>
<path d="m2532 2120c-45-11-110-58-138-100-27-41-43-106-44-172v-48h-55-55v-140-140h225 225v305 305l-62-1c-35-1-78-5-96-9z"/>
<path d="m1314 1825c-27-41-1-67 146-140l129-65-24-42c-14-24-25-46-25-50 0-5 83-8 185-8h185v85 85h-105-105l-160 80c-88 44-171 80-185 80-15 0-31-9-41-25z"/>
<path d="m3020 1605v-195h-750-750v-85-85h1196 1196l104 110h112 112l1 43c0 23 0 60-1 82l-1 40 135 67c93 46 136 74 141 88 9 30-19 70-50 70-14 0-83-30-154-66l-129-66-39 31c-47 38-111 51-244 51h-99v55 55h-390-390v-195z"/>
<path d="m4940 1545-165-85-72 6-73 6v-61-61h152 151l-21 23-22 23 122 59c66 33 131 68 144 78 42 32 22 98-29 96-12 0-96-38-187-84z"/>
<path d="m656 1504c-20-19-20-43-2-69 8-11 73-49 145-85 118-58 129-66 116-80-8-9-15-20-15-23 0-4 65-7 145-7h145v55 55h-70c-68 0-75 3-240 85-93 47-179 85-189 85-11 0-27-7-35-16z"/>
<path d="m4012 1185-51-55h-1660-1661v-32c1-149 133-403 233-449 41-18 106-19 2174-19h2132l212 293c117 160 217 298 222 305 8 9-148 12-771 12h-780l-50-55z"/>
</g>
</svg>
