<?xml version="1.0" standalone="no"?>
<!DOCTYPE svg PUBLIC "-//W3C//DTD SVG 20010904//EN"
 "http://www.w3.org/TR/2001/REC-SVG-20010904/DTD/svg10.dtd">
<svg version="1.0" xmlns="http://www.w3.org/2000/svg"
 width="638.000000pt" height="304.000000pt" viewBox="0 0 638.000000 304.000000"
 preserveAspectRatio="xMidYMid meet">

<g transform="translate(0.000000,304.000000) scale(0.100000,-0.100000)"
 stroke="none">
<path fill="#1C1C1C" d="M3260 2720 c-13 -13 -20 -33 -20 -58 l0 -38 -132 -12 c-109 -10 -144
-10 -195 1 l-63 14 0 -113 0 -112 66 -12 c63 -12 125 -11 268 6 l56 7 0 -82 0
-81 -55 0 -55 0 0 -165 0 -165 336 0 337 0 -5 78 c-7 118 -52 188 -148 231
-38 17 -66 21 -172 21 l-128 0 0 234 c0 200 -2 237 -16 250 -21 22 -50 20 -74
-4z"/>
<path fill="#1C1C1C" d="M2532 2120 c-45 -11 -110 -58 -138 -100 -27 -41 -43 -106 -44 -172
l0 -48 -55 0 -55 0 0 -140 0 -140 225 0 225 0 0 305 0 305 -62 -1 c-35 -1 -78
-5 -96 -9z"/>
<path fill="#1C1C1C" d="M1314 1825 c-27 -41 -1 -67 146 -140 l129 -65 -24 -42 c-14 -24 -25
-46 -25 -50 0 -5 83 -8 185 -8 l185 0 0 85 0 85 -105 0 -105 0 -160 80 c-88
44 -171 80 -185 80 -15 0 -31 -9 -41 -25z"/>
<path fill="#1C1C1C" d="M3020 1605 l0 -195 -750 0 -750 0 0 -85 0 -85 1196 0 1196 0 52 55
52 55 112 0 112 0 1 43 c0 23 0 60 -1 82 l-1 40 135 67 c93 46 136 74 141 88
9 30 -19 70 -50 70 -14 0 -83 -30 -154 -66 l-129 -66 -39 31 c-47 38 -111 51
-244 51 l-99 0 0 55 0 55 -390 0 -390 0 0 -195z"/>
<path fill="#1C1C1C" d="M4940 1545 l-165 -85 -72 6 -73 6 0 -61 0 -61 152 0 151 0 -21 23
-22 23 122 59 c66 33 131 68 144 78 42 32 22 98 -29 96 -12 0 -96 -38 -187
-84z"/>
<path fill="#1C1C1C" d="M656 1504 c-20 -19 -20 -43 -2 -69 8 -11 73 -49 145 -85 118 -58 129
-66 116 -80 -8 -9 -15 -20 -15 -23 0 -4 65 -7 145 -7 l145 0 0 55 0 55 -70 0
c-68 0 -75 3 -240 85 -93 47 -179 85 -189 85 -11 0 -27 -7 -35 -16z"/>
<path fill="#1C1C1C" d="M4012 1185 l-51 -55 -1660 0 -1661 0 0 -32 c1 -149 133 -403 233
-449 41 -18 106 -19 2174 -19 l2132 0 212 293 c117 160 217 298 222 305 8 9
-148 12 -771 12 l-780 0 -50 -55z"/>
</g>
</svg>
